<svg width="304" height="74" viewBox="0 0 304 74" fill="none" xmlns="http://www.w3.org/2000/svg">
<path d="M134.306 69.2282C167.121 69.358 203.697 68.2724 239.686 63.7687C250.859 62.3701 261.91 60.6656 272.22 57.7236C276.867 56.4003 281.422 54.838 285.492 52.973C288.464 51.6108 291.049 49.7577 292.971 47.817C297.551 43.1702 296.352 38.2606 289.496 34.6091C285.464 32.469 280.812 30.6408 276.044 29.1332C262.151 24.7507 247.434 21.6827 232.378 19.2067C219.908 17.1558 207.185 16.2111 194.412 15.5028C192.913 15.4195 191.269 15.4476 189.963 15.0639C188.924 14.7609 187.53 13.8537 187.663 13.3434C187.83 12.6249 189.058 11.8017 190.2 11.4515C191.263 11.119 192.825 11.3077 194.168 11.3218C214.958 11.5633 235.002 14.4116 254.488 18.7879C263.987 20.9196 273.307 23.4467 282.372 26.2068C287.14 27.6573 291.615 29.7103 295.472 31.9613C303.625 36.7081 305.201 42.9723 300.475 49.0214C298.016 52.1772 294.285 54.7031 289.722 56.8157C281.678 60.5379 272.452 62.844 262.852 64.7164C244.302 68.3301 225.127 70.2337 205.739 71.5451C182.681 73.1053 159.493 73.7899 136.222 73.6093C108.354 73.3859 80.6583 72.0455 53.4608 67.7047C42.6133 65.9766 32.2017 63.5441 22.5957 59.9488C16.3383 57.6083 10.6232 54.8881 6.27928 51.2427C-0.752403 45.3479 -1.38174 39.2048 3.96338 32.9103C6.96501 29.3748 11.3641 26.4999 16.2965 23.9097C29.2961 17.0755 44.5711 12.5974 60.7177 9.12187C81.7762 4.59344 103.706 2.26354 126.032 1.03222C154.636 -0.535069 183.24 0.213795 211.774 2.61311C236.411 4.68771 260.685 7.8286 283.931 13.5238C286.907 14.25 289.787 15.1454 292.667 16.0123C294.681 16.6172 295.98 17.5228 295.092 18.95C294.43 20.0111 292.467 20.2994 289.87 19.5513C275.233 15.2981 259.621 13.0022 243.993 10.7535C225.684 8.11603 207.155 6.57578 188.478 5.53602C155.306 3.7008 122.508 4.69136 90.11 8.81194C72.653 11.0305 55.8602 14.3903 40.182 19.4783C32.0732 22.1077 24.4327 25.1631 17.9963 29.1603C15.5747 30.665 13.3093 32.3054 11.4845 34.0769C5.78618 39.6059 6.53404 45.1531 14.0699 49.9651C17.8772 52.386 22.3834 54.5249 27.0361 56.3342C37.4262 60.38 49.0887 62.6065 60.9955 64.2868C83.8312 67.5069 106.993 68.7772 134.29 69.2279L134.306 69.2282Z" fill="#B97A50"/>
</svg>
