<svg width="229" height="219" viewBox="0 0 229 219" fill="none" xmlns="http://www.w3.org/2000/svg">
<g clip-path="url(#clip0_7_6)">
<path d="M33.1796 176.083C33.767 176.06 28.5852 169.178 27.4119 159.18C26.1875 148.858 29.0647 135.352 36.3269 129.955C37.235 131.622 38.6705 132.482 40.8444 132.106C40.8444 132.106 40.3971 131.078 40.2439 127.685C42.4482 126.687 44.972 125.97 47.8502 125.587C57.8191 124.274 60.4738 131.844 57.5072 143.159C56.2218 146.556 55.2566 149.73 54.9309 152.069C53.4256 162.816 55.7541 163.171 56.6238 164.627C57.1403 165.504 68.7221 171.202 68.9849 166.525C70.0636 147.294 73.4724 138.491 75.176 134.082C76.9487 129.522 77.5603 133.913 78.2713 146.697C78.9397 158.593 84.6861 160.03 88.7045 159.677C89.063 159.665 89.3976 159.57 89.6736 159.337C89.7004 159.32 89.7256 159.288 89.7524 159.27C89.7902 159.223 89.8438 159.188 89.8816 159.141C90.2236 158.728 90.4339 158.042 90.4303 156.992C90.4271 152.762 91.5915 139.637 95.5875 130.681C99.596 121.71 106.968 115.754 103.965 114.654C100.962 113.555 97.6577 113.856 95.9526 114.941C94.2475 116.026 92.1193 123.044 91.1267 125.976C89.8893 129.671 86.4069 140.496 86.6561 148.685C84.5347 150.924 82.0216 138.114 81.5309 131.608C80.7681 121.55 81.7009 119.617 78.8939 119.229C76.0869 118.842 72.9261 119.271 73.0009 122.097C73.0899 124.922 73.2121 131.095 70.1113 139.058C68.0697 144.296 66.3558 150.778 65.007 156.542C64.7531 157.607 63.9126 157.428 63.613 156.815C61.671 152.876 61.9278 147.508 63.0573 141.841C63.2044 141.105 63.3104 140.388 63.3754 139.69C65.3359 123.294 52.649 120.297 40.1893 123.892C40.2516 120.878 40.5014 116.849 41.1056 111.5C41.6478 106.748 42.4268 101.926 43.165 97.2521C45.5278 97.4023 46.9764 98.5048 47.201 100.364C47.4979 102.863 46.0236 109.937 45.1848 114.867C44.3461 119.796 48.0695 120.397 52.2983 119.358C50.3394 116.543 51.931 106.305 53.2727 100.095C57.8609 95.3607 61.4131 93.9375 59.8279 101.685C58.0299 110.479 58.5148 121.389 70.4113 108.864C72.248 110.599 74.9106 110.6 77.295 108.776C79.323 107.238 81.4837 104.072 83.0909 100.466C83.5902 103.1 84.5113 105.011 85.9691 105.94C88.3724 107.467 96.9136 100.271 99.9018 86.2197C101.417 86.3795 103.429 85.8498 106.108 84.2088C102.697 92.1056 102.72 101.859 111.514 98.6777C114.058 97.757 116.594 96.2616 118.991 94.4222C121.137 98.2519 124.58 101.59 129.534 102.512C128.019 104.899 126.654 107.715 125.587 111.016C124.021 116.387 122.769 122.112 122.443 127.502C122.256 130.559 122.216 133.139 122.315 135.286C117.244 140.838 114.298 144.826 111.869 144.986C109.198 145.158 111.787 137.383 113.424 130.09C115.062 122.81 114.243 120.788 110.334 120.582C107.597 120.431 104.859 122.05 104.717 122.958C104.634 123.5 106.535 124.148 105.542 131.153C104.925 135.497 100.595 151.555 106.312 152.218C111.298 152.792 117.926 142.804 122.692 139.129C123.788 145.638 126.917 145.443 130.748 142.535C134.804 139.458 136.614 131.915 142.428 123.516C143.343 124.736 144.155 125.68 144.847 126.451C143.506 128.085 142.31 129.731 141.383 131.332C136.377 139.884 146.298 138.144 149.512 134.745C151.878 132.247 151.962 128.41 150.41 124.484C153.468 120.599 156.062 117.96 157.907 116.327C157.891 116.818 157.89 117.322 157.908 117.866C158.356 127.298 163.531 131.577 168.448 127.841C171.443 125.56 174.704 120.04 176.39 114.454C178.23 114.303 180.383 113.873 182.883 113.072C182.992 113.017 183.101 112.961 183.209 112.906C182.62 115.462 182.041 117.844 181.54 119.656C180.803 122.301 183.556 126.033 189.378 124.828C188.011 120.881 191.791 106.065 193.888 100.935C193.91 100.875 193.933 100.83 193.955 100.77C199.093 96.5627 202.579 96.0823 200.232 104.478C198.144 111.98 197.396 120.9 202.867 120.022C205.526 119.607 213.095 115.657 218.335 107.899C218.743 107.306 219.973 104.951 216.534 105.34C211.603 105.897 210.677 115.657 203.828 116.431C200.034 116.86 202.587 107.996 205.995 102.114C209.788 95.5695 209.869 91.1861 205.07 89.9874C202.509 89.356 198.374 92.4998 195.068 95.593C194.741 91.1693 189.344 91.8081 183.719 95.1348C183.719 95.1348 186.301 97.4762 185.31 102.84C184.953 104.78 184.509 106.96 184.038 109.157C183.109 109.982 182.133 110.768 181.188 111.321C180.014 112.015 178.451 112.566 176.846 112.762C177.575 109.787 177.792 106.87 177.226 104.531C175.481 97.3754 170.046 97.8027 167.756 100.968C166.86 102.206 166.011 105.266 166.483 108.163C164.242 107.567 159.985 108.48 158.455 113.157C156.035 115.172 152.472 118.28 149.08 121.757C148.383 120.555 147.544 119.369 146.581 118.24C147.552 117.152 148.624 116.067 149.768 114.988C153.673 111.338 150.15 107.793 146.696 107.925C143.242 108.056 135.038 111.861 140.237 120.296C140.536 120.78 140.832 121.236 141.127 121.677C133.631 130.611 130.148 139.265 128.353 137.395C126.121 135.086 127.295 127.773 129.777 119.435C130.265 117.768 131.042 115.349 132.026 112.59L132.012 112.592C133.718 108.212 135.741 104.717 137.789 101.953C140.338 101.204 143.131 99.9386 146.194 98.0096C158.556 90.2377 142.11 86.0676 131.235 100.118C126.528 98.9663 123.902 94.9607 122.468 91.4392C129.615 84.5158 134.507 75.0846 132.474 70.7242C130.177 65.8037 119.337 67.3025 116.452 82.7805C116.064 84.8245 116.357 87.7987 117.391 90.8331C113.852 93.3915 110.458 94.8113 109.067 93.1986C106.75 90.5251 109.043 84.5821 111.11 80.4633C116.35 75.6405 116.867 71.5531 109.104 76.7187C106.534 78.4336 102.53 79.0445 100.933 78.4049C99.3332 77.7511 96.0011 76.1564 95.7498 79.4081C95.6404 80.8594 95.9084 83.1026 97.0436 84.6147C95.0848 94.405 88.5592 103.517 87.3168 100.42C85.7523 96.5103 92.0285 54.7625 109.591 29.3371C110.633 27.7372 107.803 22.4309 97.5726 26.7817C98.006 28.8335 97.7624 29.4798 96.749 32.2276C92.4866 43.9187 85.8757 66.4083 83.4871 83.6001C81.5362 81.6191 78.7935 82.6917 76.6247 84.1312C72.2052 87.0482 68.7954 92.7865 68.1321 100.286C67.9064 102.873 68.1993 104.955 68.8387 106.538C66.9019 109.519 64.6894 111.208 63.4769 111.432C60.3606 112 61.9605 104.509 64.4524 99.436C67.2244 93.7842 67.0296 90.1514 62.9901 89.428C60.5526 88.9985 56.6983 92.7149 54.032 95.7359C53.961 94.0892 53 92.8452 49.6269 92.9243C48.2483 92.9506 46.1157 93.4363 43.6422 94.09C44.7423 87.0157 45.6127 80.4565 45.2619 75.316C45.0865 72.7457 44.3214 68.1413 37.3941 68.6077C28.5481 69.0321 22.8233 72.37 17.0857 77.249C17.0857 77.249 24.8378 88.7908 26.9159 100.427C14.2471 107.903 6.64718 120.115 14.0496 126.271C21.2148 132.239 31.5512 120.681 30.0388 101.7C32.6811 100.121 35.1141 98.9823 37.2779 98.2629C37.1271 100.366 36.9492 102.358 36.7283 104.095C36.1356 108.911 34.2455 119.053 35.0746 125.751C34.4986 126.003 33.9369 126.254 33.3783 126.533C25.6314 130.315 15.4422 146.23 16.8587 158.761C18.2752 171.293 25.4703 176.379 33.1101 176.105L33.1796 176.083ZM174.805 107.812C174.872 109.431 174.732 111.116 174.425 112.733C172.234 112.448 170.265 111.318 169.416 108.781C167.655 103.512 174.53 101.052 174.805 107.812V107.812ZM166.53 115.841C167.176 114.042 167.672 112.705 167.958 111.665C169.136 113.173 171.044 114.266 174.043 114.445C172.872 118.851 170.444 122.579 167.386 123.414C165 124.073 165.454 118.798 166.53 115.841V115.841ZM146.993 132.065C145.449 135.722 142.102 136.287 147.037 129.024C147.538 129.888 147.559 130.706 146.993 132.065ZM147.256 115.301C146.641 115.845 146.055 116.386 145.484 116.94C141.341 111.48 154.646 108.738 147.256 115.301ZM141.997 98.4408C141.286 98.7658 140.598 99.0451 139.933 99.2784C148.166 90.1172 155.18 92.4611 141.997 98.4408ZM127.724 76.8298C129.354 78.3867 125.763 83.4116 121.257 87.6045C121.012 86.5818 120.914 85.8446 120.886 85.5889C119.935 77.1779 125.723 74.912 127.724 76.8298ZM74.6671 97.8785C75.8724 88.8065 81.7082 84.9236 82.9051 89.0187C82.6963 91.3734 82.601 93.5858 82.6395 95.5815C81.6735 100.022 79.3214 103.914 76.3067 104.744C74.1158 105.351 74.2856 100.742 74.6655 97.8643L74.6671 97.8785ZM26.4737 112.176C21.7023 126.111 8.77577 118.32 22.3125 107.192C24.0517 105.773 25.7376 104.517 27.3542 103.414C27.6126 106.464 27.4035 109.452 26.4737 112.176V112.176ZM29.7745 98.852C29.0604 93.6807 27.4847 88.0167 24.7699 82.0786C31.4304 76.7068 35.8967 77.6408 37.0324 80.304C37.816 82.1436 37.8544 89.1037 37.4738 95.7946C34.8001 96.586 32.2121 97.6268 29.7745 98.852Z" fill="#B97A50" fill-opacity="0.5"/>
<path d="M204.905 136.397C203.921 136.091 202.86 136.643 202.556 137.641C191.878 172.275 161.561 199.07 123.249 203.386C90.7222 207.063 60.2257 193.689 40.6371 170.377C39.9724 169.588 38.7941 169.477 37.9915 170.143C37.2031 170.808 37.0916 171.986 37.758 172.789C58.1126 197.022 89.8515 210.946 123.657 207.125C163.502 202.621 195.038 174.767 206.135 138.748C206.441 137.763 205.875 136.705 204.891 136.399L204.905 136.397Z" fill="#B97A50" fill-opacity="0.5"/>
<path d="M29.4265 62.4145C30.3214 62.9465 31.4689 62.6585 32.001 61.7638C46.5411 37.4858 71.8391 20.021 102.135 16.5964C146.826 11.5447 187.748 38.7194 201.667 79.609C201.949 80.4548 202.798 80.9631 203.651 80.8668C203.779 80.8523 203.919 80.822 204.044 80.7792C205.029 80.452 205.542 79.3868 205.214 78.4021C190.735 35.8636 148.195 7.61986 101.714 12.874C70.2105 16.4351 43.8983 34.6045 28.7916 59.853C28.2595 60.7478 28.5475 61.8951 29.4423 62.4271L29.4265 62.4145Z" fill="#B97A50" fill-opacity="0.5"/>
<path d="M87.6803 178.24C90.1244 177.963 90.0075 175.401 89.9127 174.563C89.8035 173.597 88.4875 174.177 88.5068 174.348C88.6305 175.442 88.742 176.81 87.591 176.94C86.44 177.07 85.856 175.597 85.3726 171.32C84.8651 166.831 84.5411 164.982 86.0189 164.815C87.4968 164.648 87.5984 167.457 87.7365 168.679C87.7654 168.935 89.092 168.957 88.9785 168.207C88.9351 167.824 88.7593 163.34 85.6899 163.687C83.0326 163.987 83.3129 166.085 83.9345 171.584C84.556 177.082 85.2362 178.516 87.6803 178.24V178.24Z" fill="#B97A50" fill-opacity="0.5"/>
<path d="M102.162 176.488C105.202 176.144 104.813 173.842 104.744 172.728C104.69 171.612 103.928 165.885 103.794 164.705C103.594 162.929 102.739 161.731 100.28 162.009C98.2624 162.237 97.3954 163.098 97.7632 166.351C98.131 169.605 98.4438 173.008 98.5305 173.776C98.6172 174.543 99.1206 176.831 102.147 176.489L102.162 176.488ZM99.2933 166.264C99.107 164.616 99.3609 163.552 100.398 163.434C101.791 163.277 102.27 163.827 102.474 165.632C102.58 166.569 103.119 170.955 103.293 172.489C103.466 174.024 103.332 175.132 102.139 175.267C100.945 175.402 100.159 174.815 99.9856 173.28C99.8941 172.47 99.4954 167.925 99.3091 166.277L99.2933 166.264Z" fill="#B97A50" fill-opacity="0.5"/>
<path d="M113.865 174.733C113.887 174.932 115.532 175.091 115.456 174.423L114.662 167.908C115.461 167.847 116.502 167.758 116.786 167.726C117.07 167.694 117.06 166.328 116.591 166.381C115.923 166.457 115.264 166.488 114.598 166.578L114.033 161.965C114.968 161.83 116.43 161.651 116.828 161.606C117.226 161.561 117.309 160.256 116.878 160.262C116.446 160.268 113.223 160.776 112.964 160.776C112.717 160.761 112.202 160.79 112.301 161.283C113.026 165.144 113.235 167.25 113.865 174.733V174.733Z" fill="#B97A50" fill-opacity="0.5"/>
<path d="M126.91 173.258C126.932 173.457 128.577 173.617 128.501 172.949L127.707 166.434C128.506 166.373 129.547 166.284 129.831 166.252C130.115 166.219 130.105 164.854 129.636 164.907C128.968 164.982 128.309 165.013 127.643 165.103L127.078 160.49C128.013 160.356 129.475 160.176 129.873 160.131C130.271 160.086 130.354 158.782 129.923 158.788C129.491 158.793 126.268 159.301 126.009 159.302C125.762 159.287 125.247 159.316 125.346 159.808C126.07 163.669 126.28 165.775 126.91 173.258V173.258Z" fill="#B97A50" fill-opacity="0.5"/>
<path d="M140.768 171.85C141.441 171.818 143.989 171.573 144.499 171.501C145.007 171.414 144.811 170.055 144.37 170.105C143.143 170.33 142.428 170.368 141.452 170.521C141.122 168.745 140.906 166.957 140.746 165.162C141.75 165.005 142.891 164.79 143.303 164.743C143.716 164.697 143.381 163.396 142.943 163.46L140.622 163.809L140.153 159.027C141.026 158.856 142.616 158.792 143.028 158.745C143.441 158.699 143.212 157.314 142.629 157.38L138.769 157.86C138.528 157.887 138.547 158.187 138.608 158.597C139.419 163.484 139.88 170.613 139.957 171.295C140.034 171.977 140.138 171.878 140.796 171.847L140.768 171.85Z" fill="#B97A50" fill-opacity="0.5"/>
<path d="M154.026 170.352C154.699 170.319 157.247 170.074 157.757 170.002C158.266 169.916 158.069 168.556 157.628 168.606C156.402 168.831 155.687 168.869 154.711 169.022C154.381 167.247 154.15 165.46 153.99 163.665C154.994 163.508 156.136 163.293 156.548 163.246C156.96 163.199 156.64 161.897 156.187 161.963L153.866 162.312L153.397 157.53C154.27 157.359 155.861 157.295 156.273 157.248C156.685 157.201 156.456 155.817 155.874 155.883L151.999 156.364C151.758 156.391 151.777 156.691 151.838 157.102C152.649 161.989 153.11 169.117 153.187 169.799C153.264 170.481 153.368 170.383 154.026 170.352V170.352Z" fill="#B97A50" fill-opacity="0.5"/>
<path d="M115.635 115.652C118.336 111.03 117.12 104.98 114.483 105.465C111.845 105.936 107.756 110.629 106.298 112.247C106.298 112.247 107.735 114.012 108.061 116.638C108.386 119.263 112.933 120.274 115.635 115.652V115.652Z" fill="#B97A50" fill-opacity="0.5"/>
</g>
<defs>
<clipPath id="clip0_7_6">
<rect width="208.002" height="195.472" fill="white" transform="translate(0.311035 24.3364) rotate(-6.44919)"/>
</clipPath>
</defs>
</svg>
