<svg width="50" height="73" viewBox="0 0 50 73" fill="none" xmlns="http://www.w3.org/2000/svg">
<path d="M1.3606 19.9795L-0.387711 19.885L-0.48746 21.7304H1.3606V19.9795ZM3.30884 12.2979L1.73799 11.5245L1.7331 11.5346L3.30884 12.2979ZM8.09595 5.95215L6.93126 4.64485L6.9253 4.65017L6.91939 4.65553L8.09595 5.95215ZM15.3323 1.66602L15.9447 3.30634L15.9565 3.30183L15.3323 1.66602ZM33.7571 1.72168L33.0993 3.34427L33.1124 3.3496L33.1256 3.35471L33.7571 1.72168ZM40.9934 6.11914L39.8157 7.41467L39.8215 7.41995L39.8273 7.42517L40.9934 6.11914ZM45.7805 12.5205L44.1908 13.2542L44.1977 13.2691L44.2048 13.2838L45.7805 12.5205ZM46.0588 26.6592L44.5054 25.8514L44.499 25.8637L44.4928 25.8762L46.0588 26.6592ZM42.9417 31.2793L44.1797 32.5173L44.199 32.498L44.2178 32.4781L42.9417 31.2793ZM38.3772 34.7861L37.5013 33.2701L34.6115 34.9398L37.6277 36.3685L38.3772 34.7861ZM44.1106 38.6826L45.3157 37.4124L45.3062 37.4036L44.1106 38.6826ZM48.0071 44.1934L46.4411 44.9764L46.4487 44.9916L46.4566 45.0067L48.0071 44.1934ZM48.0071 60.2803L46.4316 59.5164L46.4269 59.5261L46.4223 59.5359L48.0071 60.2803ZM43.053 66.793L44.2076 68.1092L44.2091 68.1078L43.053 66.793ZM35.3713 71.3018L35.9794 72.9436L35.9883 72.9403L35.9972 72.937L35.3713 71.3018ZM15.2766 71.4131L14.6799 73.0591L14.689 73.0624L14.6982 73.0657L15.2766 71.4131ZM7.65063 67.0713L6.49769 68.3889L6.50346 68.394L6.50927 68.399L7.65063 67.0713ZM2.7522 60.7812L1.17187 61.535L1.17889 61.5497L1.18618 61.5643L2.7522 60.7812ZM0.748291 53.0439V51.2931H-1.12486L-0.998585 53.162L0.748291 53.0439ZM11.6028 53.0439L13.3423 52.8451L13.1649 51.2931H11.6028V53.0439ZM12.8274 56.8291L11.2903 57.6675L11.3056 57.6955L11.3219 57.723L12.8274 56.8291ZM15.6106 60.1133L14.4607 61.4336L14.4833 61.4533L14.5065 61.4721L15.6106 60.1133ZM19.8411 62.4512L19.2427 64.0966L19.265 64.1047L19.2874 64.1122L19.8411 62.4512ZM35.3713 60.002L36.5581 61.2893L36.5589 61.2885L35.3713 60.002ZM35.3713 43.8037L34.1946 45.1001L35.3713 43.8037ZM20.175 40.5195H18.4242V42.2704H20.175V40.5195ZM20.175 30.7783V29.0275H18.4242V30.7783H20.175ZM33.4788 27.8281L32.2977 26.5356L32.2921 26.5407L32.2865 26.5459L33.4788 27.8281ZM33.4788 12.7432L32.2746 14.0142L32.2801 14.0194L32.2857 14.0246L33.4788 12.7432ZM12.1594 19.9795V21.7304H13.7399L13.9011 20.1581L12.1594 19.9795ZM3.1089 20.074C3.24533 17.5501 3.8398 15.2181 4.88458 13.0611L1.7331 11.5346C0.47709 14.1277 -0.227263 16.9167 -0.387711 19.885L3.1089 20.074ZM4.87966 13.0712C5.96919 10.8581 7.4307 8.92004 9.27251 7.24877L6.91939 4.65553C4.75339 6.62098 3.02348 8.91343 1.73802 11.5245L4.87966 13.0712ZM9.26063 7.25945C11.1262 5.59738 13.3469 4.27613 15.9446 3.30629L14.7199 0.0257378C11.7513 1.13403 9.14771 2.6702 6.93126 4.64485L9.26063 7.25945ZM15.9565 3.30183C18.5511 2.31179 21.4714 1.80262 24.7395 1.80262V-1.6991C21.1052 -1.6991 17.7541 -1.1321 14.7081 0.030201L15.9565 3.30183ZM24.7395 1.80262C27.8027 1.80262 30.5825 2.32396 33.0993 3.34427L34.4149 0.0990896C31.4395 -1.10716 28.2075 -1.6991 24.7395 -1.6991V1.80262ZM33.1256 3.35471C35.724 4.35943 37.947 5.7159 39.8157 7.41467L42.1712 4.82361C39.9578 2.81144 37.3565 1.23627 34.3885 0.0886478L33.1256 3.35471ZM39.8273 7.42517C41.7354 9.12882 43.1829 11.0704 44.1908 13.2542L47.3702 11.7868C46.1516 9.14636 44.4077 6.82039 42.1595 4.81311L39.8273 7.42517ZM44.2048 13.2838C45.2418 15.4247 45.7552 17.6505 45.7552 19.9795H49.257C49.257 17.1131 48.62 14.3663 47.3563 11.7573L44.2048 13.2838ZM45.7552 19.9795C45.7552 22.3628 45.3129 24.2987 44.5054 25.8514L47.6122 27.4669C48.7345 25.3088 49.257 22.7915 49.257 19.9795H45.7552ZM44.4928 25.8762C43.624 27.6138 42.6761 29.0047 41.6655 30.0805L44.2178 32.4781C45.5079 31.1046 46.6382 29.4155 47.6249 27.4422L44.4928 25.8762ZM41.7036 30.0413C40.4379 31.307 39.038 32.3823 37.5013 33.2701L39.2531 36.3021C41.0563 35.2603 42.6993 33.9977 44.1797 32.5173L41.7036 30.0413ZM37.6277 36.3685C39.5797 37.2931 41.3403 38.4897 42.915 39.9617L45.3062 37.4036C43.4668 35.6841 41.4052 34.2831 39.1267 33.2038L37.6277 36.3685ZM42.9055 39.9528C44.1693 41.1517 45.3567 42.8077 46.4411 44.9764L49.5731 43.4104C48.3567 40.9775 46.9464 38.9596 45.3156 37.4124L42.9055 39.9528ZM46.4566 45.0067C47.481 46.9595 48.0375 49.4285 48.0375 52.4873H51.5392C51.5392 49.0149 50.9081 45.9546 49.5575 43.38L46.4566 45.0067ZM48.0375 52.4873C48.0375 54.9712 47.5026 57.3075 46.4316 59.5164L49.5825 61.0441C50.8865 58.3546 51.5392 55.4956 51.5392 52.4873H48.0375ZM46.4223 59.5359C45.3801 61.7548 43.8795 63.7347 41.8968 65.4781L44.2091 68.1078C46.5311 66.0661 48.3333 63.7041 49.5918 61.0246L46.4223 59.5359ZM41.8984 65.4767C39.9598 67.1772 37.5851 68.5798 34.7455 69.6666L35.9972 72.937C39.1693 71.7229 41.9156 70.1196 44.2076 68.1092L41.8984 65.4767ZM34.7632 69.6599C31.9801 70.6907 28.8317 71.2208 25.2961 71.2208V74.7225C29.1824 74.7225 32.7509 74.1394 35.9794 72.9436L34.7632 69.6599ZM25.2961 71.2208C21.7476 71.2208 18.6078 70.724 15.855 69.7605L14.6982 73.0657C17.8829 74.1803 21.4228 74.7225 25.2961 74.7225V71.2208ZM15.8733 69.767C13.0778 68.7537 10.7267 67.4067 8.792 65.7436L6.50927 68.399C8.80508 70.3726 11.5379 71.9202 14.6799 73.0591L15.8733 69.767ZM8.80358 65.7536C6.8896 64.0789 5.39999 62.1618 4.31821 59.9982L1.18618 61.5643C2.47941 64.1507 4.25542 66.427 6.49769 68.3889L8.80358 65.7536ZM4.33253 60.0275C3.28013 57.8209 2.66627 55.4582 2.49517 52.9259L-0.998585 53.162C-0.798594 56.1218 -0.0765209 58.9174 1.17187 61.535L4.33253 60.0275ZM0.748291 54.7948H11.6028V51.2931H0.748291V54.7948ZM9.86325 53.2428C10.039 54.7806 10.5216 56.2582 11.2903 57.6675L14.3645 55.9907C13.7973 54.9508 13.4634 53.905 13.3423 52.8451L9.86325 53.2428ZM11.3219 57.723C12.1315 59.0864 13.1844 60.322 14.4607 61.4336L16.7605 58.793C15.736 57.9007 14.9335 56.9468 14.3329 55.9352L11.3219 57.723ZM14.5065 61.4721C15.8645 62.5755 17.4511 63.4451 19.2427 64.0966L20.4394 60.8057C18.9654 60.2697 17.7317 59.5808 16.7147 58.7544L14.5065 61.4721ZM19.2874 64.1122C21.1555 64.7349 23.163 65.037 25.2961 65.037V61.5353C23.4957 61.5353 21.8665 61.2808 20.3947 60.7902L19.2874 64.1122ZM25.2961 65.037C29.9237 65.037 33.762 63.8669 36.5581 61.2893L34.1846 58.7146C32.2307 60.5159 29.3522 61.5353 25.2961 61.5353V65.037ZM36.5589 61.2885C39.3185 58.7412 40.7404 55.5707 40.7404 51.875H37.2386C37.2386 54.5621 36.2484 56.8096 34.1838 58.7154L36.5589 61.2885ZM40.7404 51.875C40.7404 48.1783 39.3172 45.0208 36.5481 42.5073L34.1946 45.1001C36.2497 46.9656 37.2386 49.1889 37.2386 51.875H40.7404ZM36.5481 42.5073C33.7217 39.9418 29.8931 38.7687 25.2961 38.7687V42.2704C29.3086 42.2704 32.1967 43.2867 34.1946 45.1001L36.5481 42.5073ZM25.2961 38.7687H20.175V42.2704H25.2961V38.7687ZM21.9259 40.5195V30.7783H18.4242V40.5195H21.9259ZM20.175 32.5292H24.7395V29.0275H20.175V32.5292ZM24.7395 32.5292C28.7624 32.5292 32.1475 31.4567 34.671 29.1103L32.2865 26.5459C30.5795 28.1331 28.1385 29.0275 24.7395 29.0275V32.5292ZM34.6598 29.1206C37.1722 26.8249 38.4581 23.9265 38.4581 20.5361H34.9564C34.9564 22.9349 34.09 24.8978 32.2977 26.5356L34.6598 29.1206ZM38.4581 20.5361C38.4581 16.9049 37.2124 13.8271 34.6718 11.4617L32.2857 14.0246C34.0498 15.6671 34.9564 17.7846 34.9564 20.5361H38.4581ZM34.6829 11.4721C32.1603 9.08232 28.7708 7.98645 24.7395 7.98645V11.4882C28.1301 11.4882 30.5667 12.3962 32.2746 14.0142L34.6829 11.4721ZM24.7395 7.98645C20.7134 7.98645 17.3071 9.05999 14.7189 11.385L17.059 13.99C18.8496 12.3814 21.3437 11.4882 24.7395 11.4882V7.98645ZM14.7189 11.385C12.21 13.6387 10.7595 16.4682 10.4177 19.8009L13.9011 20.1581C14.1531 17.7017 15.1889 15.6699 17.059 13.99L14.7189 11.385ZM12.1594 18.2286H1.3606V21.7304H12.1594V18.2286Z" fill="white"/>
</svg>
