<svg width="27" height="73" viewBox="0 0 27 73" fill="none" xmlns="http://www.w3.org/2000/svg">
<path d="M26.1306 0.608398H27.8815V-1.14246H26.1306V0.608398ZM26.1306 72.415V74.1659H27.8815V72.415H26.1306ZM15.2761 72.415H13.5253V74.1659H15.2761V72.415ZM15.2761 15.415H17.027V12.1903L14.3225 13.9467L15.2761 15.415ZM5.59058 21.7051L4.08751 22.603L5.01973 24.1635L6.54418 23.1735L5.59058 21.7051ZM0.469482 13.1328L-0.520935 11.689L-1.87688 12.6192L-1.03359 14.0308L0.469482 13.1328ZM18.7273 0.608398V-1.14246H18.1845L17.7369 -0.835409L18.7273 0.608398ZM24.3798 0.608398V72.415H27.8815V0.608398H24.3798ZM26.1306 70.6642H15.2761V74.1659H26.1306V70.6642ZM17.027 72.415V15.415H13.5253V72.415H17.027ZM14.3225 13.9467L4.63697 20.2367L6.54418 23.1735L16.2297 16.8834L14.3225 13.9467ZM7.09365 20.8071L1.97255 12.2349L-1.03359 14.0308L4.08751 22.603L7.09365 20.8071ZM1.4599 14.5766L19.7177 2.05221L17.7369 -0.835409L-0.520935 11.689L1.4599 14.5766ZM18.7273 2.35926H26.1306V-1.14246H18.7273V2.35926Z" fill="white"/>
</svg>
