<svg width="52" height="72" viewBox="0 0 52 72" fill="none" xmlns="http://www.w3.org/2000/svg">
<path d="M51.6755 57.667V59.4179H53.4264V57.667H51.6755ZM43.7156 57.667V55.9161H41.9647V57.667H43.7156ZM43.7156 71.917V73.6679H45.4664V71.917H43.7156ZM32.8611 71.917H31.1102V73.6679H32.8611V71.917ZM32.8611 57.667H34.6119V55.9161H32.8611V57.667ZM0.965576 57.667H-0.785283V59.4179H0.965576V57.667ZM0.965576 48.5381L-0.519724 47.6111L-0.785283 48.0365V48.5381H0.965576ZM31.1912 0.110352V-1.64051H30.22L29.7059 -0.816681L31.1912 0.110352ZM43.7156 0.110352H45.4664V-1.64051H43.7156V0.110352ZM43.7156 47.4248H41.9647V49.1757H43.7156V47.4248ZM51.6755 47.4248H53.4264V45.6739H51.6755V47.4248ZM32.8611 47.4248V49.1757H34.6119V47.4248H32.8611ZM32.8611 16.0303H34.6119V9.85839L31.371 15.1109L32.8611 16.0303ZM13.49 47.4248L11.9999 46.5054L10.3523 49.1757H13.49V47.4248ZM51.6755 55.9161H43.7156V59.4179H51.6755V55.9161ZM41.9647 57.667V71.917H45.4664V57.667H41.9647ZM43.7156 70.1661H32.8611V73.6679H43.7156V70.1661ZM34.6119 71.917V57.667H31.1102V71.917H34.6119ZM32.8611 55.9161H0.965576V59.4179H32.8611V55.9161ZM2.71644 57.667V48.5381H-0.785283V57.667H2.71644ZM2.45088 49.4651L32.6765 1.03738L29.7059 -0.816681L-0.519724 47.6111L2.45088 49.4651ZM31.1912 1.86121H43.7156V-1.64051H31.1912V1.86121ZM41.9647 0.110352V47.4248H45.4664V0.110352H41.9647ZM43.7156 49.1757H51.6755V45.6739H43.7156V49.1757ZM49.9247 47.4248V57.667H53.4264V47.4248H49.9247ZM34.6119 47.4248V16.0303H31.1102V47.4248H34.6119ZM31.371 15.1109L11.9999 46.5054L14.98 48.3442L34.3511 16.9497L31.371 15.1109ZM13.49 49.1757H32.8611V45.6739H13.49V49.1757Z" fill="white"/>
</svg>
