<svg width="48" height="73" viewBox="0 0 48 73" fill="none" xmlns="http://www.w3.org/2000/svg">
<path d="M47.485 62.1729H49.2358V60.422H47.485V62.1729ZM47.485 72.415V74.1659H49.2358V72.415H47.485ZM1.33948 72.415H-0.411381V74.1659H1.33948V72.415ZM1.33948 64.4551L0.0547233 63.2656L-0.411381 63.769V64.4551H1.33948ZM29.8395 33.6729L28.5675 32.4697L28.5611 32.4765L28.5547 32.4833L29.8395 33.6729ZM33.235 29.4424L34.6918 30.4136L34.6982 30.4039L33.235 29.4424ZM35.5729 25.2119L33.9993 24.4443L33.9916 24.4599L33.9843 24.4757L35.5729 25.2119ZM33.402 12.7432L32.2089 14.0246L32.2144 14.0297L32.2199 14.0347L33.402 12.7432ZM15.0885 13.2441L16.3166 14.4921L16.3265 14.4822L15.0885 13.2441ZM11.5817 22.2617V24.0126H13.3325V22.2617H11.5817ZM0.782837 22.2617H-0.968022V24.0126H0.782837V22.2617ZM2.39709 13.2441L0.774505 12.5863L0.77067 12.5958L0.766945 12.6053L2.39709 13.2441ZM7.07288 6.23047L5.87002 4.95821L5.86419 4.96372L5.85841 4.96929L7.07288 6.23047ZM14.4205 1.72168L15.0376 3.36022L15.0491 3.35584L14.4205 1.72168ZM33.7916 1.66602L33.1745 3.30452L33.1873 3.30932L33.2001 3.31392L33.7916 1.66602ZM41.1393 6.06348L39.9371 7.33637L39.9429 7.34188L39.9488 7.34733L41.1393 6.06348ZM45.8151 12.7988L44.1975 13.469L44.2016 13.4788L44.2058 13.4885L45.8151 12.7988ZM45.8707 27.9395L44.2848 27.1976L44.2798 27.2082L44.275 27.2188L45.8707 27.9395ZM42.3639 34.0068L43.7676 35.0533L43.7682 35.0526L42.3639 34.0068ZM37.2428 39.9072L36.0048 38.6692L35.9781 38.6958L35.9527 38.7235L37.2428 39.9072ZM16.8141 62.1729L15.524 60.9892L12.8315 63.9237H16.8141V62.1729ZM45.7341 62.1729V72.415H49.2358V62.1729H45.7341ZM47.485 70.6642H1.33948V74.1659H47.485V70.6642ZM3.09034 72.415V64.4551H-0.411381V72.415H3.09034ZM2.62423 65.6446L31.1242 34.8624L28.5547 32.4833L0.0547233 63.2656L2.62423 65.6446ZM31.1114 34.876C32.4725 33.4372 33.6675 31.95 34.6918 30.4136L31.7782 28.4712C30.8728 29.8293 29.8041 31.1624 28.5675 32.4697L31.1114 34.876ZM34.6982 30.4039C35.6025 29.0278 36.423 27.5416 37.1614 25.9481L33.9843 24.4757C33.3126 25.9252 32.5745 27.2593 31.7718 28.4809L34.6982 30.4039ZM37.1465 25.9795C37.998 24.2339 38.437 22.414 38.437 20.5361H34.9353C34.9353 21.8497 34.6321 23.147 33.9993 24.4443L37.1465 25.9795ZM38.437 20.5361C38.437 16.8949 37.1654 13.8142 34.5841 11.4516L32.2199 14.0347C34.0174 15.68 34.9353 17.7945 34.9353 20.5361H38.437ZM34.595 11.4617C32.0164 9.06094 28.4494 7.98645 24.1617 7.98645V11.4882C27.8897 11.4882 30.4828 12.4176 32.2089 14.0246L34.595 11.4617ZM24.1617 7.98645C20.0485 7.98645 16.5581 9.29842 13.8505 12.0061L16.3265 14.4822C18.2946 12.5141 20.8531 11.4882 24.1617 11.4882V7.98645ZM13.8604 11.9962C11.143 14.6705 9.83081 18.1489 9.83081 22.2617H13.3325C13.3325 18.9527 14.3583 16.4193 16.3166 14.4921L13.8604 11.9962ZM11.5817 20.5109H0.782837V24.0126H11.5817V20.5109ZM2.5337 22.2617C2.5337 19.1913 3.03896 16.4048 4.02724 13.883L0.766945 12.6053C-0.397115 15.5757 -0.968022 18.8009 -0.968022 22.2617H2.5337ZM4.01968 13.9019C5.04684 11.3683 6.47163 9.24012 8.28734 7.49165L5.85841 4.96929C3.66631 7.08019 1.97391 9.6278 0.774505 12.5863L4.01968 13.9019ZM8.27574 7.50272C10.1335 5.74626 12.3788 4.36158 15.0376 3.36018L13.8034 0.0831757C10.7475 1.23412 8.09425 2.8553 5.87002 4.95821L8.27574 7.50272ZM15.0491 3.35584C17.7136 2.33103 20.743 1.80262 24.1617 1.80262V-1.6991C20.3812 -1.6991 16.9166 -1.11423 13.792 0.0875235L15.0491 3.35584ZM24.1617 1.80262C27.548 1.80262 30.5443 2.31391 33.1745 3.30452L34.4087 0.0275116C31.3241 -1.13422 27.9005 -1.6991 24.1617 -1.6991V1.80262ZM33.2001 3.31392C35.8938 4.28088 38.128 5.62777 39.9371 7.33637L42.3415 4.79058C40.1428 2.71402 37.4786 1.12928 34.3832 0.018116L33.2001 3.31392ZM39.9488 7.34733C41.803 9.06667 43.2168 11.1018 44.1975 13.469L47.4326 12.1287C46.2609 9.30056 44.5576 6.84544 42.3298 4.77963L39.9488 7.34733ZM44.2058 13.4885C45.2221 15.8601 45.7341 18.3892 45.7341 21.0928H49.2358C49.2358 17.9331 48.6345 14.9329 47.4244 12.1091L44.2058 13.4885ZM45.7341 21.0928C45.7341 23.0704 45.2657 25.1006 44.2848 27.1976L47.4567 28.6813C48.6281 26.1768 49.2358 23.6425 49.2358 21.0928H45.7341ZM44.275 27.2188C43.2798 29.4226 42.1722 31.3328 40.9596 32.9611L43.7682 35.0526C45.1532 33.1926 46.3835 31.0579 47.4664 28.6601L44.275 27.2188ZM40.9601 32.9604C39.4917 34.9303 37.8406 36.8333 36.0048 38.6692L38.4808 41.1453C40.4302 39.1959 42.1931 37.1654 43.7676 35.0533L40.9601 32.9604ZM35.9527 38.7235L15.524 60.9892L18.1042 63.3565L38.5329 41.0909L35.9527 38.7235ZM16.8141 63.9237H47.485V60.422H16.8141V63.9237Z" fill="white"/>
</svg>
