<svg width="50" height="73" viewBox="0 0 50 73" fill="none" xmlns="http://www.w3.org/2000/svg">
<path d="M34.5322 25.3818L33.8401 26.9901L33.8487 26.9938L33.8574 26.9974L34.5322 25.3818ZM42.1582 30.6143L40.8894 31.8207L40.8995 31.8314L40.9098 31.8419L42.1582 30.6143ZM34.0312 70.6367L34.6849 72.261L34.6934 72.2576L34.7019 72.2541L34.0312 70.6367ZM14.4375 70.915L13.8273 72.5561L13.8366 72.5596L13.8459 72.5629L14.4375 70.915ZM2.19141 60.2832L0.620557 61.0565L0.625391 61.0662L2.19141 60.2832ZM0.1875 52.5459V50.795H-1.66056L-1.56081 52.6404L0.1875 52.5459ZM10.9863 52.5459L12.7259 52.3471L12.5485 50.795H10.9863V52.5459ZM12.2109 56.3311L10.6739 57.1695L10.6892 57.1975L10.7055 57.2249L12.2109 56.3311ZM14.9941 59.6152L13.8442 60.9355L13.8565 60.9462L13.869 60.9567L14.9941 59.6152ZM19.0576 61.9531L18.4343 63.5893L18.4515 63.5958L18.4687 63.602L19.0576 61.9531ZM29.6895 61.6748L30.375 63.2859L30.3894 63.2797L30.4037 63.2734L29.6895 61.6748ZM34.2539 58.6133L35.4739 59.8691L35.483 59.8603L35.492 59.8513L34.2539 58.6133ZM37.2598 53.9375L35.6341 53.2872L35.6307 53.2959L35.6273 53.3045L37.2598 53.9375ZM37.2598 42.0811L35.6231 42.703L35.6307 42.7229L35.6387 42.7427L37.2598 42.0811ZM34.2539 37.4053L33.0159 38.6433L33.0248 38.6523L33.0339 38.6611L34.2539 37.4053ZM29.6895 34.3438L28.9752 35.9423L28.9895 35.9487L29.0039 35.9548L29.6895 34.3438ZM18.167 34.5664L18.991 36.1113L19.003 36.1048L18.167 34.5664ZM14.1035 37.5166L15.3416 38.7546L15.3524 38.7438L15.3631 38.7327L14.1035 37.5166ZM10.9863 41.6914V43.4423H12.0446L12.5365 42.5053L10.9863 41.6914ZM1.91309 41.6914L0.172681 41.5004L-0.0404863 43.4423H1.91309V41.6914ZM6.47754 0.110352V-1.64051H4.90836L4.73713 -0.0806961L6.47754 0.110352ZM44.6631 0.110352H46.4139V-1.64051H44.6631V0.110352ZM44.6631 10.3525V12.1034H46.4139V10.3525H44.6631ZM15.6621 10.3525V8.60168H14.0843L13.9207 10.171L15.6621 10.3525ZM13.8809 27.4414L12.1394 27.2599L11.7118 31.3622L14.9599 28.8202L13.8809 27.4414ZM16.9424 25.4932L16.1364 23.9388L16.1287 23.9429L16.121 23.947L16.9424 25.4932ZM20.5049 24.1016L20.018 22.4197L20.0059 22.4233L20.5049 24.1016ZM25.2363 25.2401C28.2696 25.2401 31.1322 25.8247 33.8401 26.9901L35.2244 23.7736C32.069 22.4156 28.7343 21.7384 25.2363 21.7384V25.2401ZM33.8574 26.9974C36.5687 28.13 38.9074 29.7362 40.8894 31.8207L43.4271 29.4078C41.1043 26.9649 38.359 25.0829 35.2071 23.7663L33.8574 26.9974ZM40.9098 31.8419C42.9402 33.9067 44.5449 36.3186 45.7236 39.0921L48.9463 37.7224C47.6016 34.5584 45.7551 31.775 43.4066 29.3867L40.9098 31.8419ZM45.7236 39.0921C46.888 41.8317 47.4767 44.7888 47.4767 47.9814H50.9784C50.9784 44.346 50.3054 40.9202 48.9463 37.7224L45.7236 39.0921ZM47.4767 47.9814C47.4767 51.1671 46.8721 54.1182 45.6752 56.8539L48.8834 58.2574C50.2842 55.0556 50.9784 51.6239 50.9784 47.9814H47.4767ZM45.6752 56.8539C44.4628 59.6251 42.8049 62.0589 40.6975 64.1663L43.1736 66.6423C45.5936 64.2224 47.4981 61.4237 48.8834 58.2574L45.6752 56.8539ZM40.6975 64.1663C38.6408 66.2229 36.2014 67.8415 33.3606 69.0194L34.7019 72.2541C37.9471 70.9085 40.7771 69.0388 43.1736 66.6423L40.6975 64.1663ZM33.3776 69.0125C30.5597 70.1465 27.481 70.7228 24.123 70.7228V74.2245C27.8901 74.2245 31.4169 73.5762 34.6849 72.261L33.3776 69.0125ZM24.123 70.7228C20.7308 70.7228 17.7064 70.2282 15.0291 69.2671L13.8459 72.5629C16.9577 73.68 20.3903 74.2245 24.123 74.2245V70.7228ZM15.0477 69.2739C12.3308 68.2638 10.0577 66.922 8.19886 65.2659L5.8695 67.8805C8.0927 69.8612 10.7551 71.4139 13.8273 72.5561L15.0477 69.2739ZM8.19886 65.2659C6.31868 63.5909 4.84266 61.6707 3.75742 59.5002L0.625391 61.0662C1.91515 63.6457 3.66765 65.9189 5.8695 67.8805L8.19886 65.2659ZM3.76223 59.5099C2.68151 57.3147 2.07179 54.9671 1.93581 52.4514L-1.56081 52.6404C-1.39992 55.6169 -0.673694 58.4275 0.620587 61.0565L3.76223 59.5099ZM0.1875 54.2968H10.9863V50.795H0.1875V54.2968ZM9.24679 52.7447C9.42254 54.2825 9.90514 55.7601 10.6739 57.1695L13.748 55.4927C13.1808 54.4528 12.847 53.4069 12.7259 52.3471L9.24679 52.7447ZM10.7055 57.2249C11.515 58.5884 12.568 59.824 13.8442 60.9355L16.1441 58.2949C15.1195 57.4026 14.317 56.4487 13.7164 55.4372L10.7055 57.2249ZM13.869 60.9567C15.1847 62.0602 16.7133 62.9336 18.4343 63.5893L19.6809 60.317C18.2848 59.7851 17.1044 59.0999 16.1193 58.2737L13.869 60.9567ZM18.4687 63.602C20.2341 64.2325 22.1238 64.5389 24.123 64.5389V61.0372C22.4856 61.0372 20.9983 60.7871 19.6465 60.3043L18.4687 63.602ZM24.123 64.5389C26.3164 64.5389 28.4059 64.1238 30.375 63.2859L29.0039 60.0637C27.4847 60.7102 25.8633 61.0372 24.123 61.0372V64.5389ZM30.4037 63.2734C32.3248 62.415 34.0199 61.2816 35.4739 59.8691L33.0339 57.3574C31.8902 58.4684 30.5424 59.376 28.9752 60.0763L30.4037 63.2734ZM35.492 59.8513C36.9734 58.3699 38.1047 56.6015 38.8922 54.5705L35.6273 53.3045C35.0047 54.9102 34.1321 56.259 33.0159 57.3752L35.492 59.8513ZM38.8854 54.5878C39.7151 52.5136 40.1239 50.3062 40.1239 47.9814H36.6222C36.6222 49.8871 36.2888 51.6505 35.6341 53.2872L38.8854 54.5878ZM40.1239 47.9814C40.1239 45.657 39.7151 43.4636 38.8808 41.4194L35.6387 42.7427C36.2888 44.3353 36.6222 46.0755 36.6222 47.9814H40.1239ZM38.8964 41.4591C38.1093 39.3877 36.9733 37.606 35.4739 36.1494L33.0339 38.6611C34.1321 39.728 35.0001 41.0635 35.6231 42.703L38.8964 41.4591ZM35.492 36.1672C34.0295 34.7047 32.3188 33.5598 30.375 32.7327L29.0039 35.9548C30.5484 36.612 31.8807 37.5081 33.0159 38.6433L35.492 36.1672ZM30.4037 32.7452C28.4281 31.8625 26.3285 31.4239 24.123 31.4239V34.9257C25.8512 34.9257 27.4625 35.2664 28.9752 35.9423L30.4037 32.7452ZM24.123 31.4239C21.6158 31.4239 19.334 31.9394 17.3309 33.0281L19.003 36.1048C20.414 35.3379 22.103 34.9257 24.123 34.9257V31.4239ZM17.3431 33.0215C15.5524 33.9766 14.0387 35.0631 12.8439 36.3005L15.3631 38.7327C16.2465 37.8178 17.4417 36.9375 18.9909 36.1113L17.3431 33.0215ZM12.8655 36.2786C11.4537 37.6904 10.3049 39.2227 9.43612 40.8775L12.5365 42.5053C13.2263 41.1914 14.1557 39.9405 15.3416 38.7546L12.8655 36.2786ZM10.9863 39.9405H1.91309V43.4423H10.9863V39.9405ZM3.65349 41.8825L8.21794 0.301399L4.73713 -0.0806961L0.172681 41.5004L3.65349 41.8825ZM6.47754 1.86121H44.6631V-1.64051H6.47754V1.86121ZM42.9122 0.110352V10.3525H46.4139V0.110352H42.9122ZM44.6631 8.60168H15.6621V12.1034H44.6631V8.60168ZM13.9207 10.171L12.1394 27.2599L15.6223 27.6229L17.4035 10.5341L13.9207 10.171ZM14.9599 28.8202C15.7161 28.2284 16.6463 27.6331 17.7638 27.0394L16.121 23.947C14.8635 24.615 13.7526 25.3185 12.8018 26.0626L14.9599 28.8202ZM17.7483 27.0475C18.63 26.5903 19.71 26.1645 21.0038 25.7798L20.0059 22.4233C18.5537 22.855 17.2586 23.3569 16.1364 23.9388L17.7483 27.0475ZM20.9917 25.7834C22.2172 25.4286 23.6269 25.2401 25.2363 25.2401V21.7384C23.3574 21.7384 21.6128 21.9581 20.018 22.4198L20.9917 25.7834Z" fill="white"/>
</svg>
