<svg width="267" height="75" viewBox="0 0 267 75" fill="none" xmlns="http://www.w3.org/2000/svg">
<path d="M118.15 69.8788C146.897 69.9372 178.94 68.772 210.476 64.1902C220.266 62.7673 229.95 61.0388 238.986 58.0744C243.06 56.741 247.053 55.169 250.621 53.2951C253.228 51.9265 255.495 50.0679 257.181 48.123C261.202 43.4664 260.16 38.5596 254.16 34.9231C250.631 32.7918 246.558 30.9737 242.384 29.4766C230.22 25.1245 217.333 22.0885 204.147 19.6454C193.226 17.6216 182.082 16.7046 170.894 16.0241C169.58 15.9441 168.14 15.9758 166.997 15.595C166.087 15.2943 164.867 14.3901 164.985 13.8796C165.133 13.1607 166.209 12.3348 167.211 11.9822C168.142 11.6473 169.51 11.8327 170.687 11.8439C188.899 12.0401 206.453 14.8447 223.517 19.1785C231.835 21.2894 239.996 23.7962 247.932 26.5364C252.106 27.9766 256.024 30.0198 259.399 32.2623C266.534 36.9913 267.904 43.2518 263.754 49.311C261.594 52.4721 258.322 55.006 254.321 57.1286C247.268 60.8681 239.181 63.1942 230.769 65.0874C214.512 68.7414 197.711 70.6867 180.724 72.0402C160.522 73.6506 140.208 74.3856 119.822 74.2556C95.4081 74.0929 71.148 72.8128 47.3291 68.5313C37.8291 66.8268 28.7123 64.4171 20.3029 60.8427C14.8251 58.5159 9.82297 55.8082 6.0235 52.1724C-0.126798 46.2931 -0.667994 40.1515 4.0249 33.8455C6.66026 30.3037 10.5187 27.4193 14.844 24.8183C26.2434 17.9561 39.6323 13.4449 53.783 9.93434C72.2385 5.36021 91.4538 2.98267 111.014 1.7028C136.074 0.0733261 161.131 0.759931 186.125 3.09709C207.704 5.11803 228.964 8.20601 249.318 13.8505C251.925 14.5702 254.446 15.4593 256.967 16.3199C258.731 16.9204 259.868 17.8231 259.088 19.2523C258.506 20.3147 256.786 20.6072 254.512 19.8649C241.696 15.6437 228.023 13.3818 214.336 11.1672C198.301 8.56958 182.072 7.0697 165.711 6.07061C136.655 4.30761 107.921 5.36951 79.5322 9.56046C64.2356 11.8169 49.5189 15.2132 35.7759 20.3351C28.668 22.9822 21.9696 26.054 16.3245 30.0651C14.2006 31.5751 12.2133 33.2204 10.6118 34.9958C5.61071 40.537 6.25672 46.0824 12.8505 50.8779C16.1818 53.2904 20.1259 55.4195 24.1989 57.2186C33.2943 61.2416 43.5074 63.4428 53.9354 65.0971C73.9351 68.2674 94.2236 69.4873 118.136 69.8785L118.15 69.8788Z" fill="#A16B46"/>
</svg>
