<svg width="26" height="26" viewBox="0 0 26 26" fill="none" xmlns="http://www.w3.org/2000/svg">
<path d="M13.4136 2.80767C16.7688 2.80767 17.1656 2.8197 18.4884 2.87983C19.715 2.93995 20.3764 3.14439 20.8214 3.31274C21.4106 3.54123 21.8195 3.81782 22.2644 4.25073C22.7094 4.69568 22.9739 5.10455 23.2024 5.6938C23.3708 6.13874 23.5752 6.80014 23.6353 8.02675C23.6955 9.34955 23.7075 9.7464 23.7075 13.1015C23.7075 16.4566 23.6955 16.8535 23.6353 18.1763C23.5752 19.4029 23.3708 20.0643 23.2024 20.5092C22.9739 21.0985 22.6973 21.5074 22.2644 21.9523C21.8315 22.3852 21.4106 22.6618 20.8214 22.8903C20.3764 23.0586 19.715 23.2631 18.4884 23.3232C17.1656 23.3833 16.7688 23.3954 13.4136 23.3954C10.0585 23.3954 9.66169 23.3833 8.33888 23.3232C7.11228 23.2631 6.45087 23.0586 6.00593 22.8903C5.41668 22.6618 5.00781 22.3852 4.56287 21.9523C4.11792 21.5074 3.85336 21.0985 3.62488 20.5092C3.45652 20.0643 3.25208 19.4029 3.19196 18.1763C3.13183 16.8535 3.1198 16.4566 3.1198 13.1015C3.1198 9.7464 3.13183 9.34955 3.19196 8.02675C3.25208 6.80014 3.45652 6.13874 3.62488 5.6938C3.85336 5.10455 4.12995 4.69568 4.56287 4.25073C5.00781 3.80579 5.41668 3.54123 6.00593 3.31274C6.45087 3.14439 7.11228 2.93995 8.33888 2.87983C9.66169 2.8197 10.0585 2.80767 13.4136 2.80767ZM13.4136 0.546875C10.0104 0.546875 9.57751 0.5589 8.24267 0.619027C6.90784 0.679155 5.9939 0.895614 5.20022 1.20828C4.37046 1.53297 3.67298 1.95386 2.9755 2.65134C2.27802 3.34882 1.8451 4.0463 1.53243 4.87606C1.21977 5.66974 1.01534 6.58368 0.95521 7.91852C0.895083 9.25335 0.883057 9.68627 0.883057 13.0895C0.883057 16.4927 0.895083 16.9256 0.95521 18.2605C1.01534 19.5953 1.2318 20.5092 1.53243 21.3029C1.85712 22.1327 2.27802 22.8302 2.9755 23.5276C3.67298 24.2251 4.37046 24.658 5.20022 24.9707C5.9939 25.2834 6.90784 25.4878 8.24267 25.56C9.57751 25.6201 10.0104 25.6321 13.4136 25.6321C16.8169 25.6321 17.2498 25.6201 18.5846 25.56C19.9195 25.4998 20.8334 25.2834 21.6271 24.9707C22.4568 24.646 23.1543 24.2251 23.8518 23.5276C24.5493 22.8302 24.9822 22.1327 25.2949 21.3029C25.6075 20.5092 25.812 19.5953 25.8841 18.2605C25.9442 16.9256 25.9563 16.4927 25.9563 13.0895C25.9563 9.68627 25.9442 9.25335 25.8841 7.91852C25.824 6.58368 25.6075 5.66974 25.2949 4.87606C24.9702 4.0463 24.5493 3.34882 23.8518 2.65134C23.1543 1.95386 22.4568 1.52094 21.6271 1.20828C20.8334 0.895614 19.9195 0.691181 18.5846 0.619027C17.2498 0.5589 16.8169 0.546875 13.4136 0.546875Z" fill="#222221"/>
<path d="M13.4139 6.64355C9.85439 6.64355 6.96826 9.52968 6.96826 13.0892C6.96826 16.6488 9.85439 19.5349 13.4139 19.5349C16.9735 19.5349 19.8596 16.6488 19.8596 13.0892C19.8596 9.52968 16.9735 6.64355 13.4139 6.64355ZM13.4139 17.2741C11.105 17.2741 9.22906 15.3981 9.22906 13.0892C9.22906 10.7803 11.105 8.90435 13.4139 8.90435C15.7228 8.90435 17.5988 10.7803 17.5988 13.0892C17.5988 15.3981 15.7228 17.2741 13.4139 17.2741Z" fill="#222221"/>
<path d="M21.6157 6.39122C21.6157 7.22117 20.9421 7.89475 20.1122 7.89475C19.2822 7.89475 18.6086 7.22117 18.6086 6.39122C18.6086 5.56128 19.2822 4.8877 20.1122 4.8877C20.9421 4.8877 21.6157 5.56128 21.6157 6.39122Z" fill="#222221"/>
</svg>
