<svg width="177" height="89" viewBox="0 0 177 89" fill="none" xmlns="http://www.w3.org/2000/svg">
<path d="M8.53799 66.1321C8.53799 67.7447 8.52044 69.0291 8.53799 70.3136C8.55554 71.5606 7.7482 72.545 5.23843 72.6669C2.71111 72.7982 1.34214 71.8325 1.16663 70.6699C0.675208 67.4915 -0.606005 64.21 0.376843 61.1442C2.34254 55.125 2.65845 49.0309 4.44864 43.0304C8.66085 29.0138 20.4024 17.1067 41.3405 8.06859C49.449 4.56209 58.6983 2.19942 68.9129 0.961836C69.8256 0.849328 70.7207 0.689942 71.6509 0.633688C73.6868 0.52118 75.477 0.80245 76.0913 1.96503C76.7933 3.287 75.4243 4.06518 73.2129 4.44958C70.8962 4.84336 68.5093 5.0965 66.2101 5.51841C55.5041 7.44979 46.5356 10.7875 38.7781 15.1285C28.6864 20.7726 21.4028 27.3074 17.3661 34.9299C18.0681 34.4705 18.8403 34.0298 19.4722 33.5516C20.2269 32.9797 20.8587 32.3703 21.5607 31.7796C32.4247 22.5915 47.185 16.0098 66.4383 12.297C101.803 5.46215 140.433 13.2721 159.317 24.5698C176.675 34.958 180.642 46.7057 170.778 59.6629C165.741 66.2821 157.948 71.9075 147.348 76.239C120.197 87.3304 89.8336 91.2588 56.3816 86.8992C35.8471 84.2177 20.4901 77.7391 10.7845 67.604C10.451 67.2478 10.0649 66.9009 9.6788 66.5633C9.6086 66.4977 9.41554 66.4602 8.53799 66.1414V66.1321ZM81.5496 84.1896C98.7845 84.1052 115.774 81.705 131.464 76.8203C145.768 72.3669 156.808 66.2446 163.144 57.9846C171.708 46.8369 168.391 36.6644 153.438 27.6356C146.382 23.3697 137.589 20.3507 127.919 18.063C93.607 9.94372 55.7323 14.8284 33.6182 30.2795C24.4566 36.6831 17.7697 43.818 12.9784 51.4498C12.1886 52.7249 11.8727 54.2343 12.2763 55.5469C15.6812 66.4883 26.2117 74.7764 44.8683 79.9237C56.0833 83.0176 68.1407 84.1615 81.5671 84.199L81.5496 84.1896Z" fill="#B97A50"/>
</svg>
