<svg width="224" height="16" viewBox="0 0 224 16" fill="none" xmlns="http://www.w3.org/2000/svg">
<path d="M5.80021 8.03255C7.57077 8.04951 9.33302 7.94773 11.1036 7.88835C11.8185 7.86291 12.5416 7.82898 13.2565 7.78657C16.4236 7.62541 19.5906 7.46425 22.7577 7.30309C26.5399 7.108 30.3304 6.90443 34.1125 6.69238C39.524 6.38702 44.9271 6.07318 50.3302 5.76783C51.5688 5.69997 52.8073 5.64908 54.0459 5.5897C57.1963 5.43703 60.3468 5.28435 63.4972 5.14015C66.6476 4.98747 69.798 4.8348 72.9485 4.6906C74.1787 4.63123 75.4173 4.55489 76.6475 4.51248C81.6766 4.35132 86.7057 4.19016 91.7264 4.029C94.8186 3.92721 97.9109 3.83391 101.003 3.73212C102.217 3.68971 103.422 3.63882 104.636 3.61337C109.498 3.54552 114.353 3.4607 119.216 3.39284C124.012 3.3165 128.808 3.24864 133.605 3.1723C134.868 3.15534 136.14 3.16382 137.404 3.15534C140.537 3.14686 143.663 3.12989 146.797 3.12141C151.668 3.10445 156.531 3.08748 161.402 3.06204C162.989 3.06204 164.585 3.07052 166.181 3.079C169.515 3.08748 172.848 3.10445 176.181 3.11293C176.456 3.11293 176.73 3.11293 177.004 3.11293C169.498 3.21472 162 3.3165 154.494 3.43525C151.36 3.48614 148.226 3.52855 145.093 3.57945C143.738 3.59641 142.391 3.60489 141.036 3.63882C136.506 3.75757 131.967 3.89328 127.437 4.01203C122.2 4.15623 116.955 4.30042 111.718 4.44462C110.837 4.47007 109.956 4.52096 109.075 4.56337C106.282 4.69908 103.497 4.82631 100.704 4.95355C95.0431 5.21649 89.3823 5.48792 83.7215 5.75086C82.8819 5.79327 82.0507 5.85265 81.2111 5.91202C78.4513 6.10711 75.6833 6.3022 72.9152 6.49729C67.961 6.84505 63.0151 7.19282 58.0608 7.54059C56.6976 7.63389 55.3343 7.77808 53.9711 7.88835C50.804 8.15978 47.6286 8.43121 44.4616 8.70263C40.43 9.0504 36.3985 9.3812 32.3752 9.74593C26.7643 10.2464 21.1617 10.7468 15.5508 11.2473C14.2041 11.366 12.8575 11.4848 11.5192 11.6035C9.10858 11.8156 6.70627 12.1294 4.29565 12.4008C4.03796 12.4263 3.82184 12.5959 3.82184 12.8843C3.82184 13.1727 4.03796 13.3508 4.29565 13.3678C5.17677 13.4102 6.0579 13.4441 6.93071 13.4865C6.82265 13.724 6.75615 13.9785 6.75615 14.233C6.75615 15.149 7.53752 16.0566 8.47683 15.9972C15.3513 15.5562 22.2257 15.0812 29.1084 14.7504C35.0851 14.462 41.0535 14.1736 47.0301 13.8767C53.6386 13.5544 60.2387 13.2321 66.8471 12.9098C68.9252 12.808 71.0034 12.7062 73.0815 12.6044C73.68 12.579 74.2785 12.5365 74.8853 12.5196C85.5253 12.2312 96.1653 11.9513 106.805 11.6629C112.491 11.5102 118.177 11.3575 123.862 11.2049C125.916 11.154 127.969 11.1031 130.022 11.0691C140.903 10.8995 151.784 10.7214 162.673 10.5517C167.337 10.4754 172 10.3991 176.663 10.3227C180.645 10.2549 184.627 10.2294 188.608 10.0767C191.892 9.9495 195.184 9.82227 198.475 9.69504C200.113 9.63566 201.759 9.59325 203.396 9.48299C207.129 9.24549 210.861 8.99951 214.593 8.74504C214.593 8.74504 214.593 8.75353 214.585 8.76201C214.377 9.12674 214.319 9.57629 214.427 9.98343C214.535 10.3821 214.793 10.7214 215.142 10.9334C215.466 11.1285 215.973 11.2388 216.339 11.0946C217.154 10.7638 217.96 10.4245 218.766 10.0852C218.749 10.0852 218.733 10.1022 218.716 10.1107L218.899 10.0343C218.966 10.0089 219.04 9.97495 219.107 9.9495C219.082 9.95798 219.057 9.97495 219.032 9.98343C219.464 9.79682 219.897 9.61022 220.321 9.42361C220.769 9.22852 221.218 9.04192 221.667 8.83835C222.158 8.61781 222.623 8.35487 223.097 8.1004C223.629 7.81201 223.953 7.17586 223.953 6.57363C223.953 6.25131 223.87 5.95443 223.72 5.68301C223.513 5.31828 223.105 4.94506 222.69 4.86872C222.274 4.79239 221.858 4.74149 221.434 4.68212C221.343 4.67364 221.252 4.66515 221.152 4.66515C220.869 4.66515 220.57 4.70756 220.304 4.72453C219.672 4.76694 219.04 4.86872 218.409 4.91114C217.893 4.95355 217.378 4.98747 216.854 5.0214C215.458 5.12319 214.07 5.22497 212.681 5.32676C212.324 5.3522 211.958 5.37765 211.601 5.4031C211.734 5.25042 211.825 5.08078 211.883 4.87721C211.95 4.72453 211.983 4.55489 211.991 4.38524C212.008 4.2665 212.025 4.14775 212.041 4.02051C212.041 3.85935 212.016 3.71516 211.967 3.57096C212 3.554 212.041 3.53704 212.075 3.52007C212.332 3.35891 212.548 3.14686 212.698 2.88391C212.856 2.604 212.939 2.30713 212.939 1.98481C212.939 1.66249 212.856 1.36562 212.698 1.08571C212.607 0.966959 212.515 0.84821 212.424 0.720978C212.208 0.500444 211.95 0.347766 211.651 0.262945C211.11 0.0508926 210.553 0 209.98 0C209.514 0 209.049 0.0339284 208.583 0.0424105C207.918 0.0424105 207.245 0.0593747 206.58 0.0593747C205.632 0.0678568 204.685 0.084821 203.737 0.084821C201.235 0.101785 198.733 0.110267 196.231 0.127231C193.879 0.144196 191.526 0.135714 189.174 0.135714C187.037 0.135714 184.893 0.135714 182.756 0.135714C174.228 0.178124 165.708 0.186606 157.179 0.279909C150.787 0.347766 144.394 0.415623 138.002 0.474998C135.143 0.508926 132.291 0.551336 129.432 0.610711C123.023 0.746425 116.622 0.89062 110.213 1.02633C108.385 1.06874 106.556 1.10267 104.735 1.14508C103.68 1.17053 102.616 1.22142 101.56 1.26383C95.2259 1.50981 88.9001 1.75579 82.566 2.00178C80.6375 2.07811 78.7007 2.15445 76.7722 2.23079C75.6916 2.2732 74.6027 2.34954 73.522 2.40043C67.2378 2.7482 60.9453 3.08748 54.661 3.43525C51.4108 3.61337 48.169 3.80846 44.9271 4.02051C39.3743 4.37676 33.8133 4.74149 28.2605 5.09774C23.4476 5.4031 18.6347 5.67452 13.8218 5.96292C13.057 6.00533 12.2923 6.05622 11.5358 6.09863C10.3056 6.17497 9.06702 6.22586 7.83677 6.27675C6.73952 6.32765 5.64227 6.36157 4.54503 6.32765C4.43696 6.03925 4.15434 5.80176 3.83846 5.8272C3.1319 5.88658 2.42534 5.96292 1.71878 6.03925C1.37797 6.07318 1.07872 6.25131 0.978969 6.60755C0.870907 7.00621 1.11197 7.47273 1.51097 7.56603C1.81853 7.64237 2.12609 7.71871 2.43365 7.79505C2.7329 7.86291 3.05709 7.88835 3.35634 7.9138C4.16265 7.99014 4.97727 8.0071 5.7919 8.0071L5.80021 8.03255ZM200.321 5.30979C201.351 5.30979 202.391 5.30979 203.421 5.30979C203.513 5.54729 203.654 5.75934 203.837 5.92899C203.438 5.95443 203.039 5.97988 202.64 5.99684C201.883 6.02229 201.135 6.05622 200.379 6.08166C197.087 6.2089 193.804 6.33613 190.512 6.46336C189.007 6.52273 187.503 6.60755 185.998 6.633C183.646 6.66693 181.293 6.70934 178.941 6.74327C173.563 6.82809 168.193 6.91291 162.815 7.00621C152.383 7.17586 141.942 7.3455 131.51 7.51514C124.037 7.63389 116.564 7.87139 109.099 8.07496C97.8444 8.38031 86.5893 8.68567 75.3342 8.99102C73.0815 9.0504 70.8205 9.20308 68.5678 9.31334C62.1755 9.62718 55.7915 9.94102 49.3992 10.2549C43.1233 10.5602 36.8557 10.8656 30.5797 11.1709C29.9979 11.1964 29.416 11.2303 28.8341 11.2557C30.5215 11.12 32.2173 10.9758 33.9047 10.8486C39.8066 10.3906 45.7085 9.92406 51.6186 9.46602C53.6801 9.30486 55.7416 9.1437 57.8031 8.98254C58.8671 8.89772 59.9311 8.84683 60.9951 8.77897C67.1381 8.39728 73.2727 8.02407 79.4156 7.64237C80.6126 7.56603 81.8179 7.47273 83.0149 7.42184C84.7439 7.35398 86.4729 7.28612 88.2019 7.21827C94.5277 6.9638 100.862 6.71782 107.188 6.46336C108.584 6.41247 109.972 6.35309 111.369 6.29372C111.735 6.27675 112.1 6.27675 112.466 6.26827C113.447 6.25131 114.419 6.22586 115.4 6.2089C121.743 6.07318 128.085 5.94595 134.428 5.81024C137.354 5.75086 140.271 5.67452 143.197 5.65756C152.632 5.58122 162.058 5.47944 171.493 5.43703C181.102 5.39461 190.711 5.32676 200.321 5.31828V5.30979Z" fill="#B97A50"/>
</svg>
