<svg width="177" height="88" viewBox="0 0 177 88" fill="none" xmlns="http://www.w3.org/2000/svg">
<path d="M9.1952 65.4685C9.1952 67.0798 9.17766 68.3633 9.1952 69.6467C9.21274 70.8926 8.40605 71.8763 5.89829 71.9981C3.373 72.1292 2.00514 71.1643 1.82977 70.0027C1.33874 66.8269 0.0585573 63.548 1.04061 60.4847C3.00473 54.4703 3.32039 48.3811 5.10914 42.3855C9.31796 28.3801 21.05 16.4826 41.9714 7.45175C50.0733 3.94807 59.3152 1.58731 69.5216 0.350714C70.4335 0.238297 71.3279 0.0790386 72.2573 0.0228299C74.2916 -0.0895875 76.0803 0.191456 76.6941 1.3531C77.3956 2.67401 76.0277 3.45156 73.8181 3.83565C71.5032 4.22912 69.1182 4.48205 66.8209 4.90362C56.1235 6.83345 47.1622 10.1685 39.411 14.5059C29.3274 20.1455 22.0496 26.6751 18.0162 34.2914C18.7177 33.8324 19.4893 33.3921 20.1206 32.9143C20.8747 32.3428 21.506 31.7339 22.2075 31.1437C33.0627 21.963 47.8111 15.3865 67.0489 11.6768C102.385 4.84741 140.984 12.6511 159.853 23.9396C177.197 34.3195 181.16 46.0578 171.305 59.0045C166.272 65.6184 158.485 71.2393 147.893 75.5674C120.764 86.6498 90.4254 90.5751 57.0004 86.2189C36.4824 83.5396 21.1377 77.0662 11.4399 66.9393C11.1067 66.5833 10.7209 66.2367 10.3351 65.8994C10.2649 65.8339 10.072 65.7964 9.1952 65.4779V65.4685ZM82.148 83.5115C99.3691 83.4272 116.345 81.029 132.023 76.1482C146.315 71.6983 157.346 65.5809 163.676 57.3276C172.234 46.1889 168.92 36.0245 153.979 27.003C146.929 22.7405 138.143 19.724 128.48 17.4382C94.1958 9.32537 56.3515 14.2062 34.2552 29.6448C25.101 36.0432 18.4195 43.1724 13.632 50.798C12.8428 52.0721 12.5272 53.5804 12.9305 54.8919C16.3327 65.8245 26.8547 74.1059 45.4963 79.249C56.7022 82.3405 68.75 83.4834 82.1656 83.5209L82.148 83.5115Z" fill="#B97A50"/>
</svg>
