<svg width="250" height="18" viewBox="0 0 250 18" fill="none" xmlns="http://www.w3.org/2000/svg">
<path d="M6.15016 9.08274C8.12453 9.10126 10.0896 8.99012 12.064 8.92528C12.8612 8.89749 13.6676 8.86045 14.4648 8.81414C17.9964 8.63816 21.528 8.46218 25.0596 8.2862C29.2772 8.07317 33.504 7.85088 37.7216 7.61932C43.7559 7.28589 49.781 6.94319 55.8061 6.60975C57.1872 6.53566 58.5683 6.48009 59.9495 6.41525C63.4626 6.24853 66.9757 6.08181 70.4887 5.92436C74.0018 5.75764 77.5149 5.59092 81.028 5.43347C82.3999 5.36863 83.781 5.28527 85.1529 5.23896C90.7608 5.06298 96.3688 4.887 101.967 4.71102C105.416 4.59988 108.864 4.49799 112.312 4.38685C113.665 4.34054 115.009 4.28497 116.363 4.25718C121.785 4.18308 127.199 4.09046 132.621 4.01637C137.97 3.93301 143.318 3.85891 148.666 3.77555C150.075 3.75703 151.494 3.76629 152.903 3.75703C156.397 3.74776 159.882 3.72924 163.377 3.71998C168.809 3.70145 174.231 3.68293 179.663 3.65514C181.434 3.65514 183.213 3.66441 184.993 3.67367C188.71 3.68293 192.427 3.70145 196.144 3.71072C196.45 3.71072 196.756 3.71072 197.062 3.71072C188.692 3.82186 180.331 3.93301 171.96 4.06268C168.466 4.11825 164.971 4.16456 161.477 4.22013C159.966 4.23866 158.464 4.24792 156.953 4.28497C151.901 4.41464 146.84 4.56283 141.789 4.6925C135.949 4.84995 130.1 5.00741 124.26 5.16487C123.278 5.19265 122.295 5.24823 121.313 5.29454C118.198 5.44273 115.093 5.58166 111.978 5.72059C105.666 6.00772 99.3535 6.30411 93.0411 6.59123C92.1049 6.63754 91.1779 6.70238 90.2417 6.76721C87.1643 6.98024 84.0776 7.19327 80.9909 7.4063C75.4664 7.78604 69.9511 8.16579 64.4266 8.54553C62.9064 8.64742 61.3862 8.80487 59.8661 8.92528C56.3344 9.22167 52.7935 9.51806 49.2619 9.81444C44.7663 10.1942 40.2706 10.5554 35.7843 10.9537C29.5275 11.5001 23.2799 12.0466 17.0231 12.5931C15.5215 12.7227 14.0198 12.8524 12.5275 12.9821C9.83936 13.2136 7.16052 13.5563 4.47241 13.8527C4.18506 13.8805 3.94405 14.0657 3.94405 14.3807C3.94405 14.6956 4.18506 14.8901 4.47241 14.9086C5.45496 14.9549 6.43751 14.992 7.41079 15.0383C7.29029 15.2976 7.21614 15.5755 7.21614 15.8533C7.21614 16.8536 8.08745 17.8447 9.13489 17.7799C16.8006 17.2982 24.4664 16.7795 32.1414 16.4183C38.8061 16.1034 45.4615 15.7885 52.1261 15.4643C59.4953 15.1124 66.8552 14.7604 74.2243 14.4084C76.5416 14.2973 78.859 14.1862 81.1763 14.075C81.8437 14.0472 82.5111 14.0009 83.1878 13.9824C95.0525 13.6675 106.917 13.3618 118.782 13.0469C125.122 12.8802 131.463 12.7135 137.803 12.5468C140.092 12.4912 142.382 12.4356 144.671 12.3986C156.805 12.2133 168.939 12.0188 181.081 11.8336C186.281 11.7502 191.482 11.6669 196.682 11.5835C201.122 11.5094 205.562 11.4816 210.002 11.3149C213.663 11.176 217.334 11.037 221.004 10.8981C222.831 10.8333 224.666 10.787 226.492 10.6666C230.654 10.4072 234.816 10.1386 238.978 9.86075C238.978 9.86075 238.978 9.87002 238.968 9.87928C238.737 10.2775 238.672 10.7684 238.792 11.213C238.913 11.6483 239.2 12.0188 239.59 12.2504C239.951 12.4634 240.516 12.5838 240.924 12.4264C241.833 12.0651 242.732 11.6947 243.631 11.3242C243.612 11.3242 243.594 11.3427 243.575 11.352L243.779 11.2686C243.853 11.2408 243.937 11.2038 244.011 11.176C243.983 11.1852 243.955 11.2038 243.928 11.213C244.41 11.0093 244.892 10.8055 245.364 10.6017C245.865 10.3887 246.365 10.1849 246.866 9.96264C247.413 9.72182 247.932 9.4347 248.46 9.15683C249.054 8.84192 249.415 8.14726 249.415 7.48965C249.415 7.13769 249.322 6.81352 249.156 6.51713C248.924 6.11886 248.47 5.71133 248.006 5.62797C247.543 5.54461 247.079 5.48904 246.606 5.42421C246.504 5.41494 246.403 5.40568 246.291 5.40568C245.976 5.40568 245.642 5.45199 245.346 5.47052C244.641 5.51683 243.937 5.62797 243.232 5.67428C242.658 5.72059 242.083 5.75764 241.499 5.79469C239.942 5.90583 238.394 6.01698 236.846 6.12813C236.447 6.15591 236.039 6.1837 235.641 6.21148C235.789 6.04477 235.891 5.85952 235.956 5.63723C236.03 5.47052 236.067 5.28527 236.076 5.10003C236.095 4.97036 236.114 4.84069 236.132 4.70176C236.132 4.52578 236.104 4.36833 236.049 4.21087C236.086 4.19235 236.132 4.17382 236.169 4.1553C236.456 3.97932 236.698 3.74776 236.864 3.46064C237.04 3.15499 237.133 2.83082 237.133 2.47886C237.133 2.1269 237.04 1.80272 236.864 1.49707C236.762 1.3674 236.66 1.23773 236.558 1.0988C236.317 0.857988 236.03 0.69127 235.696 0.598649C235.094 0.367096 234.473 0.311523 233.833 0.311523C233.314 0.311523 232.795 0.348572 232.276 0.357834C231.534 0.357834 230.784 0.376358 230.042 0.376358C228.985 0.38562 227.929 0.404144 226.872 0.404144C224.082 0.422669 221.292 0.431931 218.502 0.450455C215.879 0.468979 213.255 0.459717 210.632 0.459717C208.25 0.459717 205.858 0.459717 203.476 0.459717C193.966 0.506028 184.465 0.51529 174.954 0.617173C167.826 0.69127 160.698 0.765367 153.57 0.830201C150.381 0.86725 147.202 0.91356 144.013 0.978395C136.867 1.12659 129.729 1.28404 122.582 1.43224C120.543 1.47855 118.504 1.5156 116.474 1.56191C115.297 1.58969 114.11 1.64527 112.933 1.69158C105.87 1.96018 98.8159 2.22878 91.7526 2.49738C89.6021 2.58074 87.4424 2.6641 85.2919 2.74746C84.0869 2.79377 82.8726 2.87713 81.6676 2.9327C74.6599 3.31245 67.643 3.68293 60.6354 4.06268C57.0111 4.25718 53.396 4.47021 49.781 4.70176C43.5891 5.09077 37.3879 5.48904 31.196 5.87805C25.829 6.21148 20.462 6.50787 15.0951 6.82278C14.2423 6.86909 13.3895 6.92467 12.546 6.97098C11.1741 7.05434 9.79302 7.10991 8.42115 7.16548C7.1976 7.22105 5.97404 7.2581 4.75049 7.22105C4.62999 6.90614 4.31483 6.6468 3.96259 6.67459C3.1747 6.73942 2.3868 6.82278 1.59891 6.90614C1.21886 6.94319 0.885168 7.13769 0.773936 7.5267C0.653434 7.96202 0.922246 8.47144 1.36717 8.57332C1.71014 8.65668 2.05311 8.74004 2.39607 8.8234C2.72977 8.89749 3.09127 8.92528 3.42497 8.95307C4.3241 9.03643 5.23249 9.05495 6.14089 9.05495L6.15016 9.08274ZM223.062 6.1096C224.212 6.1096 225.37 6.1096 226.52 6.1096C226.622 6.36894 226.779 6.60049 226.983 6.78573C226.538 6.81352 226.093 6.84131 225.648 6.85983C224.805 6.88762 223.971 6.92467 223.127 6.95245C219.456 7.09138 215.795 7.23032 212.124 7.36925C210.447 7.43408 208.769 7.5267 207.091 7.55449C204.468 7.59154 201.845 7.63785 199.222 7.6749C193.224 7.76752 187.236 7.86014 181.239 7.96202C169.606 8.14726 157.964 8.33251 146.331 8.51775C137.997 8.64742 129.664 8.90676 121.34 9.12905C108.79 9.46248 96.239 9.79592 83.6883 10.1294C81.1763 10.1942 78.655 10.3609 76.143 10.4813C69.0149 10.824 61.896 11.1667 54.7679 11.5094C47.7696 11.8428 40.7805 12.1763 33.7821 12.5097C33.1332 12.5375 32.4844 12.5746 31.8355 12.6023C33.7172 12.4541 35.6082 12.2967 37.4898 12.1578C44.0711 11.6576 50.6523 11.1482 57.2428 10.648C59.5416 10.4721 61.8404 10.2961 64.1392 10.1201C65.3257 10.0275 66.5122 9.9719 67.6987 9.8978C74.5487 9.48101 81.3895 9.07347 88.2395 8.65668C89.5743 8.57332 90.9184 8.47144 92.2532 8.41586C94.1812 8.34177 96.1092 8.26767 98.0373 8.19357C105.091 7.91571 112.154 7.64711 119.208 7.36925C120.766 7.31367 122.314 7.24884 123.871 7.18401C124.279 7.16548 124.687 7.16548 125.094 7.15622C126.188 7.13769 127.273 7.10991 128.367 7.09138C135.439 6.94319 142.512 6.80426 149.584 6.65607C152.847 6.59123 156.1 6.50787 159.363 6.48935C169.884 6.40599 180.395 6.29484 190.916 6.24853C201.632 6.20222 212.347 6.12813 223.062 6.11886V6.1096Z" fill="#B97A50"/>
</svg>
