<svg width="26" height="26" viewBox="0 0 26 26" fill="none" xmlns="http://www.w3.org/2000/svg">
<path fill-rule="evenodd" clip-rule="evenodd" d="M25.6804 12.1731C25.5121 5.55911 20.0645 0.255859 13.3663 0.255859C6.6681 0.255859 1.3408 5.43886 1.05218 11.9567C1.05218 12.1371 1.05218 12.3175 1.05218 12.4978C1.05218 14.8067 1.70156 16.9713 2.81994 18.8112L0.595215 25.3772L7.42571 23.2126C9.19346 24.1866 11.2258 24.7398 13.3783 24.7398C20.1848 24.7398 25.7045 19.2682 25.7045 12.5099C25.7045 12.4016 25.7045 12.3054 25.7045 12.1972L25.6804 12.1731ZM13.3663 22.7676C11.2618 22.7676 9.30169 22.1423 7.66622 21.06L3.68577 22.3347L4.9725 18.5106C3.73387 16.815 3.00032 14.7346 3.00032 12.4858C3.00032 12.1491 3.01234 11.8124 3.04842 11.4877C3.55349 6.28064 7.99091 2.20399 13.3543 2.20399C18.7177 2.20399 23.2633 6.38887 23.6842 11.6801C23.7083 11.9447 23.7203 12.2092 23.7203 12.4858C23.7203 18.1619 19.0664 22.7676 13.3543 22.7676H13.3663Z" fill="#222221"/>
<path fill-rule="evenodd" clip-rule="evenodd" d="M19.0186 14.9637C18.718 14.8193 17.2268 14.0858 16.9502 13.9896C16.6737 13.8814 16.4692 13.8453 16.2648 14.1339C16.0604 14.4345 15.4831 15.108 15.3028 15.3004C15.1224 15.5048 14.954 15.5289 14.6413 15.3725C14.3407 15.2282 13.3666 14.9156 12.2122 13.8814C11.3223 13.0877 10.709 12.1136 10.5286 11.813C10.3603 11.5123 10.5166 11.356 10.6609 11.1997C10.7932 11.0674 10.9615 10.8509 11.1179 10.6705C11.1539 10.6224 11.19 10.5743 11.2261 10.5262C11.2983 10.418 11.3464 10.3098 11.4185 10.1655C11.5267 9.96104 11.4666 9.79268 11.3945 9.63635C11.3223 9.49204 10.709 8.0129 10.4565 7.41163C10.2039 6.81035 9.9514 6.91858 9.77101 6.91858C9.59063 6.91858 9.39822 6.89453 9.19379 6.89453C8.98936 6.89453 8.66467 6.96668 8.38808 7.26732C8.11149 7.56796 7.32983 8.28949 7.32983 9.76863C7.32983 10.1174 7.38996 10.4661 7.48617 10.7908C7.7868 11.849 8.44821 12.7149 8.56846 12.8712C8.71277 13.0636 10.6609 16.1903 13.7274 17.4048C16.8059 18.5954 16.8059 18.1985 17.3591 18.1504C17.9123 18.1023 19.1509 17.4289 19.3914 16.7194C19.644 16.0219 19.644 15.4206 19.5718 15.2883C19.4997 15.1681 19.2952 15.0959 18.9946 14.9396L19.0186 14.9637Z" fill="#222221"/>
</svg>
